<?xml version="1.0" standalone="no"?>
<!DOCTYPE svg PUBLIC "-//W3C//DTD SVG 20010904//EN"
 "http://www.w3.org/TR/2001/REC-SVG-20010904/DTD/svg10.dtd">
<svg version="1.0" xmlns="http://www.w3.org/2000/svg"
 width="512.000000pt" height="512.000000pt" viewBox="0 0 512.000000 512.000000"
 preserveAspectRatio="xMidYMid meet">

<g transform="translate(0.000000,512.000000) scale(0.100000,-0.100000)"
fill="#ffffff" stroke="none">
<path d="M2370 5044 c-97 -12 -260 -48 -342 -75 -131 -44 -317 -137 -428 -216
-122 -87 -296 -262 -382 -383 -81 -114 -175 -300 -217 -429 -66 -202 -95 -456
-72 -622 56 -395 328 -940 840 -1679 218 -315 637 -862 698 -910 34 -26 92
-26 126 0 60 48 478 592 698 910 510 737 784 1284 840 1679 23 166 -6 420 -72
622 -42 129 -136 315 -217 429 -37 52 -116 145 -177 205 -133 133 -260 225
-420 304 -231 114 -423 161 -680 166 -88 2 -176 1 -195 -1z m381 -239 c281
-49 539 -179 743 -374 203 -195 351 -478 401 -770 19 -106 19 -288 1 -383 -73
-377 -409 -991 -948 -1730 -171 -235 -407 -538 -418 -538 -11 0 -247 303 -418
538 -539 739 -875 1353 -948 1730 -44 228 4 518 126 769 195 399 565 677 1010
758 102 18 347 19 451 0z"/>
<path d="M2382 4210 c-186 -49 -343 -179 -432 -358 -44 -90 -63 -175 -63 -287
0 -190 58 -330 193 -466 135 -137 283 -199 470 -199 116 0 202 19 296 66 182
90 317 265 358 466 30 147 13 286 -54 423 -87 180 -246 308 -445 360 -82 21
-232 19 -323 -5z m261 -215 c205 -43 347 -219 347 -429 0 -386 -457 -588 -736
-324 -65 62 -99 115 -125 199 -49 158 0 332 125 447 64 57 128 91 206 108 74
16 103 16 183 -1z"/>
<path d="M1633 1241 c-356 -91 -592 -231 -675 -399 -29 -58 -33 -76 -33 -147
0 -68 4 -89 29 -140 116 -238 510 -406 1126 -482 204 -25 696 -25 900 0 616
76 1010 244 1126 482 25 51 29 72 29 140 0 71 -4 89 -33 147 -81 165 -313 304
-652 392 -190 49 -218 50 -261 7 -40 -41 -41 -107 -1 -151 23 -27 44 -35 147
-60 248 -59 423 -137 518 -231 48 -49 57 -63 57 -94 0 -51 -23 -89 -82 -136
-170 -134 -536 -240 -958 -279 -148 -13 -532 -13 -680 0 -422 39 -788 145
-958 279 -60 48 -82 85 -82 138 0 32 8 44 58 93 97 94 283 176 535 235 129 31
162 51 173 110 12 64 -48 136 -113 135 -10 -1 -86 -18 -170 -39z"/>
</g>
</svg>
