<?xml version="1.0" standalone="no"?>
<!DOCTYPE svg PUBLIC "-//W3C//DTD SVG 20010904//EN"
 "http://www.w3.org/TR/2001/REC-SVG-20010904/DTD/svg10.dtd">
<svg version="1.0" xmlns="http://www.w3.org/2000/svg"
 width="960.000000pt" height="685.000000pt" viewBox="0 0 960.000000 685.000000"
 preserveAspectRatio="xMidYMid meet">

<g transform="translate(0.000000,685.000000) scale(0.100000,-0.100000)"
fill="#ffffff" stroke="none">
<path d="M853 6835 c-430 -78 -763 -413 -838 -844 -13 -72 -15 -428 -15 -2566
0 -2197 2 -2492 15 -2566 43 -230 133 -401 300 -564 105 -103 211 -171 347
-222 197 -74 -189 -68 4158 -68 l3905 0 87 23 c197 52 336 130 474 267 134
133 209 252 263 415 53 164 51 32 51 2766 0 2462 -1 2533 -19 2606 -90 353
-374 636 -736 736 l-100 27 -3910 2 c-3178 1 -3923 -1 -3982 -12z m7755 -532
c-2 -5 -836 -839 -1853 -1855 -1702 -1698 -1854 -1847 -1895 -1858 -90 -24
-75 -36 -640 520 -283 280 -1120 1114 -1860 1854 l-1345 1346 3798 0 c2089 0
3797 -3 3795 -7z m482 -2747 c0 -1632 -4 -2518 -10 -2584 -22 -215 -94 -333
-247 -405 l-65 -30 -1299 1299 -1299 1299 1452 1452 c799 799 1456 1453 1460
1453 5 0 8 -1118 8 -2484z m-6278 237 l628 -628 -1309 -1309 -1308 -1308 -36
11 c-48 16 -133 93 -159 145 -56 110 -52 -85 -55 2730 l-3 2589 807 -801 c445
-440 1090 -1083 1435 -1429z m1448 -1449 c250 -250 467 -462 482 -470 37 -19
127 -18 158 2 14 9 223 214 465 455 l440 439 1128 -1121 c620 -616 1127 -1125
1127 -1130 0 -5 -1295 -9 -3270 -9 -1798 0 -3270 3 -3270 7 0 9 2272 2283
2280 2283 3 0 210 -205 460 -456z"/>
</g>
</svg>
