<?xml version="1.0" standalone="no"?>
<!DOCTYPE svg PUBLIC "-//W3C//DTD SVG 20010904//EN"
 "http://www.w3.org/TR/2001/REC-SVG-20010904/DTD/svg10.dtd">
<svg version="1.0" xmlns="http://www.w3.org/2000/svg"
 width="981.000000pt" height="938.000000pt" viewBox="0 0 981.000000 938.000000"
 preserveAspectRatio="xMidYMid meet">

<g transform="translate(0.000000,938.000000) scale(0.100000,-0.100000)"
fill="#ffffff" stroke="none">
<path d="M1955 9350 c-228 -60 -491 -197 -733 -382 -697 -532 -1080 -1053
-1194 -1622 -33 -165 -31 -385 5 -557 196 -932 1090 -2433 2153 -3616 790
-879 1800 -1668 2974 -2325 871 -487 1672 -794 2190 -838 464 -39 946 134
1435 515 470 367 839 815 954 1160 95 283 78 532 -48 715 -165 239 -437 488
-980 892 -583 435 -1037 712 -1236 753 -138 29 -313 12 -432 -41 -214 -94
-362 -290 -665 -878 -76 -148 -155 -291 -174 -318 -107 -146 -292 -235 -432
-208 -63 12 -89 25 -317 158 -596 350 -1042 683 -1501 1123 -594 568 -980
1055 -1197 1506 -41 85 -42 91 -42 188 0 89 3 107 29 163 16 34 45 77 65 94
43 38 155 91 389 187 203 83 238 100 401 194 348 202 494 336 561 515 47 126
45 258 -6 417 -33 100 -224 489 -343 698 -164 286 -367 589 -549 817 -98 123
-325 350 -427 427 -168 126 -361 227 -500 263 -104 27 -280 27 -380 0z m392
-465 c287 -146 537 -402 851 -872 173 -258 272 -431 426 -740 159 -321 168
-374 75 -470 -60 -61 -101 -90 -276 -192 -162 -94 -221 -123 -423 -206 -350
-145 -425 -188 -528 -300 -174 -190 -242 -499 -166 -757 37 -123 224 -459 377
-678 212 -303 428 -553 806 -931 463 -462 775 -721 1259 -1045 279 -188 701
-437 801 -475 141 -53 344 -63 486 -24 142 40 276 118 399 235 109 104 145
159 291 440 166 319 221 417 304 542 117 176 172 217 292 218 61 0 76 -5 189
-61 206 -101 702 -426 990 -648 447 -345 714 -586 824 -746 l41 -60 0 -95 c-1
-182 -85 -364 -284 -615 -242 -305 -645 -639 -968 -803 -416 -212 -754 -219
-1325 -28 -964 322 -2219 1053 -3228 1879 -1096 897 -2128 2207 -2760 3500
-225 460 -351 830 -367 1078 -25 391 246 899 691 1298 287 256 519 426 698
510 179 85 239 102 341 98 81 -3 93 -6 184 -52z"/>
</g>
</svg>
